# xmcd
#
# Track frame offsets: 
#        150
#        16326
#        32486
#        48369
#        61321
#        74765
#        89080
#        103219
#        118310
#        129748
#        144164
#        167044
#        214134
#        224389
#
# Disc length: 3300 seconds
#
# Revision: 11
# Processed by: cddbd v1.5.2PL0 Copyright (c) Steve Scherf et al.
# Submitted via: ExactAudioCopy v1.1
#
DISCID=d90ce20e
DTITLE=Eric Clapton - Eric Clapton (Deluxe Edition) [CD1]
DYEAR=2006
DGENRE=Rock
TTITLE0=Slunky
TTITLE1=Bad Boy
TTITLE2=Lonesome And A Long Way From Home
TTITLE3=After Midnight
TTITLE4=Easy Now
TTITLE5=Blues Power
TTITLE6=Bottle Of Red Wine
TTITLE7=Lovin' You Lovin' Me
TTITLE8=I've Told You For The Last Time
TTITLE9=Don't Know Why
TTITLE10=Let It Rain
TTITLE11=Blues In "A"
TTITLE12=King Curtis With Delaney Bramlett, Eric Clapton and Friends - T
TTITLE12=easin'
TTITLE13=She Rides ("Let It Rain" Original Version)
EXTD=
EXTT0=
EXTT1=
EXTT2=
EXTT3=
EXTT4=
EXTT5=
EXTT6=
EXTT7=
EXTT8=
EXTT9=
EXTT10=
EXTT11=
EXTT12=
EXTT13=
PLAYORDER=
